<svg xmlns="http://www.w3.org/2000/svg" viewBox="0 0 80 40" width="5em" height="2.5em">
    <path d="M56.006,17.14c0.676,-0.001 1.329,0.245 1.836,0.691c0.165,0.123 0.365,0.191 0.571,0.196c0.003,-0 0.007,-0 0.011,-0c0.441,-0 0.804,-0.363 0.804,-0.804c-0,-0.008 -0,-0.016 -0.001,-0.024c-0.004,-0.229 -0.102,-0.447 -0.272,-0.6c-0.795,-0.75 -1.856,-1.156 -2.948,-1.128c-2.639,-0 -4.482,1.869 -4.482,4.545c0,2.677 1.844,4.547 4.482,4.547c1.09,0.028 2.149,-0.376 2.943,-1.124c0.172,-0.154 0.273,-0.373 0.278,-0.605c-0,-0.008 0,-0.016 0,-0.024c0,-0.441 -0.363,-0.804 -0.803,-0.804c-0.004,0 -0.008,0 -0.012,0c-0.212,0.006 -0.416,0.078 -0.585,0.206c-0.505,0.44 -1.152,0.682 -1.821,0.682c-1.581,0 -2.685,-1.183 -2.685,-2.877c0,-1.694 1.104,-2.877 2.685,-2.877m8.903,5.799c-1.783,0 -2.715,-1.47 -2.715,-2.922c-0,-1.918 1.366,-2.922 2.715,-2.922c1.784,0 2.717,1.47 2.717,2.922c0,1.919 -1.367,2.922 -2.717,2.922m0,-7.468c-0.027,-0 -0.054,-0 -0.081,-0c-2.429,-0 -4.427,1.998 -4.427,4.427c-0,0.039 0,0.079 0.001,0.119c0,2.473 2.035,4.507 4.507,4.507c2.473,-0 4.507,-2.034 4.507,-4.507c0.001,-0.04 0.002,-0.08 0.002,-0.119c-0,-2.429 -1.999,-4.427 -4.427,-4.427c-0.027,-0 -0.055,-0 -0.082,0m14.238,0.051c-0.34,0.006 -0.646,0.212 -0.779,0.525l-2.785,5.832l-0.025,-0.051l-2.792,-5.793c-0.135,-0.312 -0.445,-0.515 -0.785,-0.513c-0.003,0 -0.006,0 -0.009,0c-0.456,0 -0.831,0.376 -0.831,0.832c-0,0.003 -0,0.006 -0,0.009l-0,7.295c-0,0.464 0.382,0.847 0.847,0.847c0.464,-0 0.847,-0.383 0.847,-0.847l-0,-3.876l2.01,4.26c0.123,0.296 0.419,0.484 0.739,0.469c0.318,0.005 0.61,-0.182 0.739,-0.473l1.983,-4.255l0,3.888c0,0.464 0.383,0.847 0.848,0.847c0.464,-0 0.847,-0.383 0.847,-0.847l-0,-7.295c0.001,-0.015 0.001,-0.031 0.001,-0.047c0,-0.443 -0.365,-0.808 -0.808,-0.808c-0.016,0 -0.032,0 -0.047,0.001" fill="#f3f4f6" />
    <path d="M34.566,16.625c0.046,-0.117 0.073,-0.241 0.081,-0.366c-0,-0.004 -0,-0.008 -0,-0.012c-0,-0.442 -0.364,-0.806 -0.805,-0.806c-0.024,0 -0.047,0.001 -0.07,0.003c-0.372,-0.015 -0.703,0.246 -0.774,0.611l-1.79,5.473l-2.055,-5.514c-0.104,-0.339 -0.419,-0.572 -0.773,-0.572c-0.355,-0 -0.67,0.233 -0.774,0.572l-2.035,5.514l-1.789,-5.473c-0.071,-0.366 -0.402,-0.627 -0.774,-0.611c-0.023,-0.002 -0.046,-0.003 -0.069,-0.003c-0.442,0 -0.805,0.364 -0.805,0.805c-0,0.004 -0,0.008 -0,0.012c0.007,0.126 0.035,0.249 0.081,0.366l2.502,7.427c0.091,0.353 0.431,0.588 0.794,0.549c0.369,0.019 0.706,-0.217 0.814,-0.57l2.055,-5.635l2.074,5.636c0.107,0.354 0.445,0.59 0.814,0.57c0.361,0.029 0.696,-0.203 0.795,-0.551l2.502,-7.427l0.001,0.002Zm-18.658,6.278l-2.961,-2.943l2.961,-2.944c0.179,-0.179 0.28,-0.422 0.28,-0.676c0,-0.524 -0.432,-0.956 -0.956,-0.956c-0.254,0 -0.497,0.101 -0.676,0.28l-3.603,3.603c-0.373,0.383 -0.373,1.002 -0,1.385l3.603,3.603c0.179,0.179 0.422,0.28 0.676,0.28c0.524,-0 0.956,-0.432 0.956,-0.956c-0,-0.254 -0.101,-0.497 -0.28,-0.676m-5.691,0.672l0,-7.243c0,-0.524 -0.431,-0.956 -0.956,-0.956c-0.524,0 -0.956,0.432 -0.956,0.956l-0,7.243c-0,0.525 0.432,0.957 0.956,0.957c0.525,-0 0.956,-0.432 0.956,-0.957m8.096,-7.174l-0,7.243c-0,0.525 0.431,0.956 0.956,0.956c0.525,0 0.956,-0.431 0.956,-0.956l0,-7.243c0,-0.525 -0.431,-0.957 -0.956,-0.957c-0.525,0 -0.956,0.432 -0.956,0.957m18.275,-0l-0,7.243c-0,0.525 0.431,0.956 0.956,0.956c0.525,0 0.957,-0.431 0.957,-0.956l-0,-7.243c-0,-0.525 -0.432,-0.957 -0.957,-0.957c-0.525,0 -0.956,0.432 -0.956,0.957m-0,-0l-0,7.243c-0,0.525 0.431,0.956 0.956,0.956c0.525,0 0.957,-0.431 0.957,-0.956l-0,-7.243c-0,-0.525 -0.432,-0.957 -0.957,-0.957c-0.525,0 -0.956,0.432 -0.956,0.957m-0,-0l-0,7.243c-0,0.525 0.431,0.956 0.956,0.956c0.525,0 0.957,-0.431 0.957,-0.956l-0,-7.243c-0,-0.525 -0.432,-0.957 -0.957,-0.957c-0.525,0 -0.956,0.432 -0.956,0.957m-0,-0l-0,7.243c-0,0.525 0.431,0.956 0.956,0.956c0.525,0 0.957,-0.431 0.957,-0.956l-0,-7.243c-0,-0.525 -0.432,-0.957 -0.957,-0.957c-0.525,0 -0.956,0.432 -0.956,0.957" fill="#f3f4f6" />
    <path d="M45.479,18.884c-0.867,0 -1.58,0.714 -1.58,1.581c-0,0.866 0.713,1.58 1.58,1.58c0.867,-0 1.58,-0.714 1.58,-1.58c0,-0.867 -0.713,-1.581 -1.58,-1.581" fill="#00a991" />
    <path d="M43.185,28.404c-0.246,-0.183 -0.544,-0.281 -0.85,-0.281c-0.455,0.001 -0.884,0.218 -1.155,0.583c-1.927,2.541 -4.448,4.57 -7.342,5.908c-3.237,1.511 -6.769,2.287 -10.341,2.272c-5.56,-0 -10.773,-1.788 -14.681,-5.035c-1.809,-1.473 -3.296,-3.301 -4.37,-5.371c-2.102,-4.06 -2.102,-8.9 0,-12.96c1.539,-3.022 4.105,-5.603 7.42,-7.46c3.563,-1.96 7.57,-2.974 11.637,-2.946c3.578,-0.014 7.115,0.766 10.356,2.283c2.899,1.343 5.423,3.381 7.347,5.933c0.271,0.367 0.701,0.585 1.157,0.586c0.787,-0.001 1.433,-0.648 1.433,-1.434c0,-0.305 -0.097,-0.603 -0.278,-0.849c-2.205,-2.932 -5.099,-5.277 -8.425,-6.826c-3.626,-1.7 -7.585,-2.574 -11.59,-2.561c-6.227,0 -12.095,2.024 -16.521,5.696c-2.108,1.722 -3.841,3.858 -5.092,6.276c-2.518,4.878 -2.518,10.686 0,15.564c1.8,3.529 4.764,6.524 8.572,8.659c3.993,2.2 8.483,3.34 13.041,3.313c3.995,0.013 7.945,-0.857 11.565,-2.549c3.32,-1.542 6.212,-3.875 8.42,-6.795c0.466,-0.634 0.329,-1.538 -0.303,-2.006" fill="#00a991" />
</svg>
