<svg xmlns="http://www.w3.org/2000/svg" viewBox="0 0 16 16" width="1em" height="1em" fill="currentColor">
    <path d="M7.214,6.639l-3.175,-1.833c-0.226,-0.131 -0.516,-0.053 -0.646,0.174l-0.312,0.54c-0.131,0.227 -0.054,0.516 0.173,0.648l3.174,1.832l-3.179,1.836c-0.223,0.128 -0.3,0.415 -0.171,0.638l0.318,0.552c0.128,0.223 0.416,0.3 0.639,0.17l3.179,-1.835l-0,3.665c-0,0.262 0.213,0.474 0.473,0.474l0.625,0c0.262,0 0.474,-0.212 0.474,-0.474l0,-3.665l3.175,1.833c0.226,0.131 0.516,0.053 0.645,-0.174l0.314,-0.541c0.13,-0.227 0.053,-0.516 -0.174,-0.646l-3.174,-1.833l3.179,-1.836c0.223,-0.129 0.301,-0.415 0.171,-0.638l-0.318,-0.552c-0.128,-0.223 -0.415,-0.3 -0.638,-0.17l-3.18,1.835l0,-3.665c0,-0.262 -0.212,-0.474 -0.474,-0.474l-0.625,0c-0.26,0 -0.473,0.212 -0.473,0.474l-0,3.665Z" />
</svg>
