<svg xmlns="http://www.w3.org/2000/svg" viewBox="0 0 16 16" width="1em" height="1em" fill="currentColor">
    <path d="M7.071,6.392l-3.752,-2.167c-0.267,-0.154 -0.609,-0.063 -0.763,0.205l-0.37,0.64c-0.154,0.268 -0.063,0.609 0.204,0.764l3.753,2.166l-3.758,2.169c-0.264,0.153 -0.355,0.491 -0.202,0.755l0.376,0.652c0.152,0.264 0.491,0.355 0.755,0.201l3.757,-2.169l0,4.332c0,0.309 0.251,0.56 0.56,0.56l0.738,-0c0.309,-0 0.56,-0.251 0.56,-0.56l-0,-4.332l3.752,2.167c0.267,0.154 0.609,0.063 0.763,-0.205l0.37,-0.64c0.154,-0.268 0.063,-0.61 -0.205,-0.764l-3.752,-2.166l3.758,-2.169c0.264,-0.153 0.355,-0.491 0.202,-0.755l-0.376,-0.652c-0.152,-0.264 -0.491,-0.355 -0.755,-0.201l-3.757,2.169l-0,-4.332c-0,-0.309 -0.251,-0.56 -0.56,-0.56l-0.738,-0c-0.309,-0 -0.56,0.251 -0.56,0.56l0,4.332Z"/>
</svg>
