<svg xmlns="http://www.w3.org/2000/svg" viewBox="0 0 16 16" width="1em" height="1em" fill="currentColor">
    <path d="M5.393,14.001c0.274,0.274 0.647,0.429 1.034,0.429l7.235,-0c1.283,-0 2.338,-1.056 2.338,-2.338l0,-8.184c0,-1.282 -1.055,-2.338 -2.338,-2.338l-7.235,0c-0.387,0 -0.76,0.155 -1.034,0.429l-4.969,4.968c-0.565,0.567 -0.565,1.499 0,2.066l4.969,4.968Zm0.827,-0.826l-4.968,-4.968c-0.114,-0.114 -0.114,-0.3 -0,-0.413c-0,-0.001 4.968,-4.969 4.968,-4.969c0.055,-0.054 0.129,-0.086 0.207,-0.086l7.235,0c0.641,0 1.169,0.528 1.169,1.169c-0,0 -0,8.184 -0,8.184c-0,0.641 -0.528,1.169 -1.169,1.169c-0,-0 -7.235,-0 -7.235,-0c-0.078,-0 -0.152,-0.032 -0.207,-0.086Zm3.35,-6.002l-1.34,-1.34c-0.228,-0.228 -0.598,-0.228 -0.826,0c-0.228,0.228 -0.228,0.599 -0,0.827l1.34,1.34l-1.34,1.34c-0.228,0.228 -0.228,0.599 -0,0.827c0.228,0.228 0.598,0.228 0.826,-0l1.34,-1.34l1.341,1.34c0.228,0.228 0.598,0.228 0.826,-0c0.228,-0.228 0.228,-0.599 0,-0.827l-1.34,-1.34l1.34,-1.34c0.228,-0.228 0.228,-0.599 0,-0.827c-0.228,-0.228 -0.598,-0.228 -0.826,0l-1.341,1.34Z"/>
</svg>
